HIERARCHY
ROOT Hips
{
	OFFSET 0.00000 0.00000 0.00000
	CHANNELS 6 Xposition Yposition Zposition Zrotation Yrotation Xrotation 
	JOINT LHipJoint
	{
		OFFSET 0 0 0
		CHANNELS 3 Zrotation Yrotation Xrotation
		JOINT LeftHip
		{
			OFFSET 1.42489 -1.84941 0.69647
			CHANNELS 3 Zrotation Yrotation Xrotation
			JOINT LeftKnee
			{
				OFFSET 2.44443 -6.71602 0.00000
				CHANNELS 3 Zrotation Yrotation Xrotation
				JOINT LeftAnkle
				{
					OFFSET 2.62838 -7.22137 0.00000
					CHANNELS 3 Zrotation Yrotation Xrotation
					JOINT LeftToe
					{
						OFFSET 0.24036 -0.66037 2.29953
						CHANNELS 3 Zrotation Yrotation Xrotation
						End Site
						{
							OFFSET 0.00000 -0.00000 1.19837
						}
					}
				}
			}
		}
	}
	JOINT RHipJoint
	{
		OFFSET 0 0 0
		CHANNELS 3 Zrotation Yrotation Xrotation
		JOINT RightHip
		{
			OFFSET -1.37055 -1.84941 0.69647
			CHANNELS 3 Zrotation Yrotation Xrotation
			JOINT RightKnee
			{
				OFFSET -2.54834 -7.00152 0.00000
				CHANNELS 3 Zrotation Yrotation Xrotation
				JOINT RightAnkle
				{
					OFFSET -2.65692 -7.29983 0.00000
					CHANNELS 3 Zrotation Yrotation Xrotation
					JOINT RightToe
					{
						OFFSET -0.18839 -0.51760 2.29390
						CHANNELS 3 Zrotation Yrotation Xrotation
						End Site
						{
							OFFSET -0.00000 -0.00000 1.18261
						}
					}
				}
			}
		}
	}
	JOINT lowerback
	{
		OFFSET 0 0 0
		CHANNELS 3 Zrotation Yrotation Xrotation
		JOINT Chest
		{
			OFFSET 0.05220 2.15489 0.05011
			CHANNELS 3 Zrotation Yrotation Xrotation
			JOINT Chest2
			{
				OFFSET -0.07653 2.14219 -0.05668
				CHANNELS 3 Zrotation Yrotation Xrotation
				JOINT lowerneck
				{
					OFFSET 0 0 0
					CHANNELS 3 Zrotation Yrotation Xrotation
					JOINT Neck
					{
						OFFSET 0.01370 1.58638 0.01447
						CHANNELS 3 Zrotation Yrotation Xrotation
						JOINT Head
						{
							OFFSET 0.23548 1.54190 -0.21747
							CHANNELS 3 Zrotation Yrotation Xrotation
							End Site
							{
								OFFSET 0.07132 1.59823 -0.08163
							}
						}
					}
				}
				JOINT LeftCollar
				{
					OFFSET 0 0 0
					CHANNELS 3 Zrotation Yrotation Xrotation
					JOINT LeftShoulder
					{
						OFFSET 3.47056 1.45357 -0.58896
CHANNELS 3 Zrotation Xrotation Yrotation
						JOINT LeftElbow
						{
OFFSET 0 -5.190690 0.000000
CHANNELS 3 Zrotation Xrotation Yrotation
							JOINT LeftWrist
							{
OFFSET 0 -3.300160 0.000000
CHANNELS 3 Zrotation Xrotation Yrotation
								JOINT lhand
								{
									OFFSET 0 0 0
CHANNELS 3 Zrotation Xrotation Yrotation
									JOINT LFingers
									{
OFFSET 0 -0.707700 0.000000
CHANNELS 3 Zrotation Xrotation Yrotation
										End Site
										{
OFFSET 0 -0.570560 0.000000
										}
									}
								}
								JOINT LThumb
								{
OFFSET 0 0.000000 0.000000
CHANNELS 3 Zrotation Xrotation Yrotation
									End Site
									{
OFFSET 0 -0.579280 0.579280
									}
								}
							}
						}
					}
				}
				JOINT RightCollar
				{
					OFFSET 0 0 0
					CHANNELS 3 Zrotation Yrotation Xrotation
					JOINT RightShoulder
					{
						OFFSET -2.89018 2.03305 -0.26731
CHANNELS 3 Zrotation Xrotation Yrotation
						JOINT RightElbow
						{
OFFSET 0 -5.239240 0.000000
CHANNELS 3 Zrotation Xrotation Yrotation
							JOINT RightWrist
							{
OFFSET 0 -3.329530 0.000000
CHANNELS 3 Zrotation Xrotation Yrotation
								JOINT rhand
								{
									OFFSET 0 0 0
CHANNELS 3 Zrotation Xrotation Yrotation
									JOINT RFingers
									{
OFFSET 0 -0.607410 0.000000
CHANNELS 3 Zrotation Xrotation Yrotation
										End Site
										{
OFFSET 0 -0.489710 0.000000
										}
									}
								}
								JOINT RThumb
								{
OFFSET 0 0.000000 0.000000
CHANNELS 3 Zrotation Xrotation Yrotation
									End Site
									{
OFFSET 0 -0.497190 0.497190
									}
								}
							}
						}
					}
				}
			}
		}
	}
}
MOTION
Frames: 8
Frame Time: 0.008333333333333333
6.913421 16.800686 3.700481 -7.119627 -15.168333 -3.371292 0.000000 0.000000 0.000000 -7.543568 -3.526950 -26.685950 14.734369 19.320718 74.434469 1.561195 -1.717682 -23.139500 1.184645 -6.907202 -19.440774 0.000000 0.000000 0.000000 31.989435 -0.392816 -11.990936 -5.166707 -13.567785 41.535422 -2.115714 -3.517940 -28.915715 -0.011091 -0.679641 1.867629 10.297070 -0.159968 -3.518309 1.691052 -0.714314 0.509392 -4.048234 -0.229294 2.414109 -0.178863 -0.992916 -9.562672 3.301568 -1.733818 10.800668 0.930892 -0.650450 4.843076 0.000000 0.000000 0.000000 16.056702 1.151661 -66.310704 25.733573 -36.943121 8.727548 10.645132 -18.316492 17.979028 0.000000 0.000000 0.000000 -7.125000 0.000000 0.000000 -11.399358 11.975428 -8.969481 0.000000 0.000000 0.000000 -10.071002 -5.949530 50.605083 -34.242009 -44.254578 -14.284644 -17.656079 -5.360793 -10.294695 0.000000 0.000000 0.000000 7.125000 0.000000 0.000000 6.642223 19.226576 4.111987
6.796926 16.930700 3.909366 -6.883732 -14.729754 -3.283124 0.000000 0.000000 0.000000 -7.982171 -4.565181 -29.666748 13.830572 19.059928 71.684776 1.691956 -0.804509 -24.370921 1.215825 -6.994391 -19.698731 0.000000 0.000000 0.000000 32.110707 -0.916165 -10.326307 -4.674344 -13.005778 39.392857 -1.953310 -4.337767 -28.241073 -0.007670 -0.564167 1.550249 9.955641 0.454976 -3.677264 1.068514 0.133351 0.261868 -4.462987 0.182273 2.367261 -0.933062 -1.531246 -9.652800 3.843585 -2.438409 11.322930 1.171465 -0.984982 5.048054 0.000000 0.000000 0.000000 18.272620 3.196248 -66.429392 25.010742 -36.214792 8.296319 9.762092 -17.849943 17.734074 0.000000 0.000000 0.000000 -7.125000 0.000000 0.000000 -11.977007 12.290324 -9.364691 0.000000 0.000000 0.000000 -9.712840 -7.885655 52.988597 -37.534090 -46.529427 -16.629721 -17.751204 -6.200392 -10.549351 0.000000 0.000000 0.000000 7.125000 0.000000 0.000000 6.574855 18.955637 4.109570
6.686955 17.080337 4.121109 -6.669655 -14.199513 -3.040631 0.000000 0.000000 0.000000 -8.482504 -5.676267 -32.316592 12.716074 18.674614 68.238704 1.807670 0.296171 -25.556095 1.220915 -7.008644 -19.740949 0.000000 0.000000 0.000000 32.195469 -1.619970 -8.898778 -4.182633 -12.398043 37.157270 -1.730685 -5.228106 -27.189409 -0.002682 -0.325394 0.894094 9.668383 1.024926 -3.975219 0.446456 0.901503 0.012074 -4.905913 0.558430 2.394356 -1.690198 -2.050411 -9.724718 4.370169 -3.112012 11.699630 1.408632 -1.307167 5.213530 0.000000 0.000000 0.000000 20.923000 5.171294 -67.257590 24.917075 -36.118980 8.240990 8.995508 -17.650832 17.499789 0.000000 0.000000 0.000000 -7.125000 0.000000 0.000000 -12.480573 12.580810 -9.700654 0.000000 0.000000 0.000000 -9.554730 -9.885376 55.002556 -41.297844 -48.810107 -19.413563 -17.883477 -6.951558 -10.836747 0.000000 0.000000 0.000000 7.125000 0.000000 0.000000 6.482085 18.647757 4.095334
6.585076 17.239842 4.330984 -6.522859 -13.615870 -2.724063 0.000000 0.000000 0.000000 -8.976921 -6.848563 -34.503266 11.433341 18.137605 64.177314 1.905712 1.672075 -26.744558 1.198372 -6.945765 -19.554715 0.000000 0.000000 0.000000 32.280013 -2.530174 -7.768872 -3.740092 -11.805274 35.047790 -1.456621 -6.173346 -25.763101 -0.000071 -0.006889 0.018896 9.464194 1.534490 -4.306168 -0.142749 1.578913 -0.188857 -5.359611 0.894946 2.487590 -2.420962 -2.545128 -9.740491 4.840882 -3.741483 11.839956 1.626712 -1.613562 5.302043 0.000000 0.000000 0.000000 23.825435 7.068681 -68.474118 25.311402 -36.520242 8.474703 8.386112 -17.802743 17.271461 0.000000 0.000000 0.000000 -7.125000 0.000000 0.000000 -12.882966 12.849972 -9.955776 0.000000 0.000000 0.000000 -9.624419 -12.005690 56.627879 -45.589498 -51.044463 -22.699058 -18.042598 -7.681982 -11.113356 0.000000 0.000000 0.000000 7.125000 0.000000 0.000000 6.371413 18.348570 4.066951
6.490689 17.399336 4.535706 -6.477960 -13.048794 -2.410558 0.000000 0.000000 0.000000 -9.406932 -8.002367 -36.112091 10.026131 17.421505 59.571532 1.983630 3.337074 -27.973153 1.155164 -6.823855 -19.194511 0.000000 0.000000 0.000000 32.410358 -3.580823 -6.926310 -3.378214 -11.283081 33.241081 -1.153174 -7.166981 -24.055030 -0.001630 0.259632 -0.713271 9.336886 1.986151 -4.574458 -0.658856 2.177678 -0.307950 -5.780278 1.197964 2.627325 -3.085820 -3.000548 -9.714138 5.210553 -4.305905 11.769026 1.807211 -1.895045 5.319097 0.000000 0.000000 0.000000 26.768163 8.861629 -69.773064 25.994761 -37.203160 8.884621 7.848391 -18.173163 17.071531 0.000000 0.000000 0.000000 -7.125000 0.000000 0.000000 -13.239340 13.083760 -10.180118 0.000000 0.000000 0.000000 -9.958733 -14.290248 57.876996 -50.425056 -53.157725 -26.516047 -18.211080 -8.478494 -11.355658 0.000000 0.000000 0.000000 7.125000 0.000000 0.000000 6.254873 18.083945 4.028397
6.400772 17.550111 4.735416 -6.564194 -12.544986 -2.135888 0.000000 0.000000 0.000000 -9.718828 -9.030625 -37.105735 8.550803 16.507580 54.519799 2.046922 5.099421 -29.234869 1.088763 -6.631185 -18.627229 0.000000 0.000000 0.000000 32.641097 -4.675466 -6.293781 -3.096470 -10.849394 31.773940 -0.848622 -8.185826 -22.217843 -0.002113 0.295347 -0.811537 9.250407 2.393637 -4.751607 -1.065176 2.719831 -0.347305 -6.109443 1.476776 2.794286 -3.670652 -3.406455 -9.651401 5.486005 -4.798001 11.577937 1.951152 -2.145565 5.291172 0.000000 0.000000 0.000000 29.587163 10.533603 -71.031063 26.760471 -37.949639 9.351518 7.346697 -18.582913 16.944157 0.000000 0.000000 0.000000 -7.125000 0.000000 0.000000 -13.571002 13.242097 -10.403852 0.000000 0.000000 0.000000 -10.575348 -16.704865 58.724295 -55.849608 -55.093854 -30.912750 -18.377377 -9.398352 -11.528038 0.000000 0.000000 0.000000 7.125000 0.000000 0.000000 6.140016 17.891542 3.979760
6.310837 17.684616 4.933110 -6.798127 -12.099431 -1.896732 0.000000 0.000000 0.000000 -9.877324 -9.853221 -37.545803 7.079077 15.397747 49.171971 2.099850 6.614314 -30.379097 1.001696 -6.368732 -17.858221 0.000000 0.000000 0.000000 33.019507 -5.741381 -5.751890 -2.869045 -10.479884 30.545242 -0.563627 -9.228515 -20.410482 -0.000200 0.085901 -0.236034 9.156251 2.762926 -4.894317 -1.344822 3.209964 -0.316809 -6.300849 1.733311 3.004086 -4.173352 -3.766307 -9.575115 5.711334 -5.233576 11.377384 2.070411 -2.368455 5.256012 0.000000 0.000000 0.000000 32.210274 12.051972 -72.268040 27.457249 -38.611699 9.783147 6.853249 -18.892092 16.885118 0.000000 0.000000 0.000000 -7.125000 0.000000 0.000000 -13.895299 13.331669 -10.641218 0.000000 0.000000 0.000000 -11.432173 -19.205647 59.113413 -61.823995 -56.776033 -35.863071 -18.497469 -10.374937 -11.644888 0.000000 0.000000 0.000000 7.125000 0.000000 0.000000 6.057309 17.760342 3.943129
6.216653 17.796055 5.133645 -7.186666 -11.652484 -1.672734 0.000000 0.000000 0.000000 -9.875883 -10.439826 -37.557183 5.688026 14.116894 43.712427 2.143009 7.476303 -31.136727 0.916393 -6.099362 -17.072962 0.000000 0.000000 0.000000 33.577036 -6.763826 -5.188503 -2.664748 -10.131289 29.403012 -0.314747 -10.259633 -18.789371 -0.001792 -0.268516 0.737769 9.021815 3.080778 -5.086038 -1.499265 3.625047 -0.245769 -6.336646 1.954030 3.262698 -4.612705 -4.086974 -9.438154 5.954634 -5.633216 11.226877 2.188473 -2.570410 5.226239 0.000000 0.000000 0.000000 34.654115 13.441765 -73.564613 28.056392 -39.167964 10.159266 6.352162 -19.055369 16.866797 0.000000 0.000000 0.000000 -7.125000 0.000000 0.000000 -14.223147 13.380695 -10.893694 0.000000 0.000000 0.000000 -12.433490 -21.704200 59.016232 -68.199805 -58.122522 -41.239793 -18.588307 -11.282957 -11.738712 0.000000 0.000000 0.000000 7.125000 0.000000 0.000000 5.994979 17.655343 3.915963
